<svg id="moon-icon" enable-background="new 0 0 512.035 512.035" height="512" viewBox="0 0 512.035 512.035" width="512" xmlns="http://www.w3.org/2000/svg"><g><path d="m347.256 125.768c-9.397 21.982-16.53 50.761 2.059 64.281 8.709 6.333 27.781 11.569 61.623-17.978 17.132 14.956 43.126 31.43 61.622 17.978 18.59-13.52 11.457-42.3 2.06-64.28 19.155-11.521 43.474-31.133 36.047-53.397-7.394-22.16-37.111-23.423-60.351-21.388-5.296-22.661-16.136-50.966-39.378-50.966-23.257 0-34.087 28.333-39.379 50.966-23.241-2.034-52.954-.776-60.35 21.388-7.427 22.262 16.892 41.874 36.047 53.396zm34.2-43.41c8.206 1.206 15.817-4.463 17.022-12.658 2.7-18.367 8.475-33.112 12.459-38.337 3.983 5.224 9.758 19.969 12.458 38.337 1.205 8.196 8.824 13.864 17.022 12.658 25.387-3.732 36.445-1.527 40.542-.079-3.585 5.244-15.341 15.08-32.63 23.721-7.481 3.739-10.455 12.876-6.622 20.299 8.982 17.398 12.704 31.894 12.559 38.211-4.446-1.202-14.958-5.834-32.723-23.598-5.857-5.858-15.355-5.858-21.213 0-17.766 17.765-28.277 22.397-32.723 23.599-.146-6.316 3.576-20.812 12.559-38.211 3.834-7.43.849-16.563-6.623-20.298-17.288-8.641-29.044-18.477-32.629-23.721 4.099-1.45 15.156-3.655 40.542.077z"/><circle cx="410.937" cy="105.018" r="15"/><path d="m475.59 311.508c-77.586 70.174-195.182 66.558-268.41-6.67-73.391-73.392-76.692-190.992-6.67-268.41 10.062-11.138-.763-28.604-15.24-24.49-105.464 30.063-185.27 127.318-185.27 245.08 0 140.61 114.39 255 255 255 117.598 0 214.97-79.644 245.08-185.27 4.119-14.496-13.366-25.29-24.49-15.24zm-220.59 170.51c-124.07 0-225-100.93-225-225 0-83.02 46.45-158.47 117.42-197.32-46.653 85.4-33.802 194.138 38.48 266.42 72.189 72.189 180.911 85.193 266.42 38.48-38.85 70.97-114.3 117.42-197.32 117.42z"/></g></svg>