<svg id="Capa_1" enable-background="new 0 0 512 512" height="512" viewBox="0 0 512 512" width="512" xmlns="http://www.w3.org/2000/svg"><g><path d="m431.748 256c5.192-5.833 10.049-11.689 14.523-17.545 32.423-42.438 41.741-80.6 26.235-107.456-1.963-3.4-4.316-6.576-7.021-9.5.332-1.784.514-3.621.514-5.5 0-16.542-13.458-30-30-30-10.132 0-19.101 5.054-24.535 12.769-19.533-1.893-42.253-.134-66.872 4.919-2.642-8.384-5.512-16.445-8.606-24.129-20.662-51.304-49.069-79.558-79.986-79.558s-59.324 28.254-79.987 79.558c-3.095 7.684-5.964 15.745-8.606 24.129-24.618-5.053-47.338-6.812-66.872-4.918-5.434-7.715-14.403-12.769-24.535-12.769-16.542 0-30 13.458-30 30 0 1.879.182 3.716.514 5.5-2.705 2.924-5.058 6.101-7.021 9.5-15.505 26.855-6.188 65.017 26.235 107.456 4.474 5.856 9.331 11.711 14.523 17.544-5.192 5.833-10.049 11.689-14.523 17.544-32.423 42.438-41.74 80.6-26.235 107.456 19.343 33.504 67.984 35.954 106.177 31.007 7.082-.917 14.345-2.148 21.747-3.661 2.639 8.372 5.505 16.421 8.596 24.095 20.663 51.305 49.07 79.559 79.987 79.559 16.516 0 32.654-7.891 47.088-22.925 3.913 1.873 8.292 2.925 12.912 2.925 16.542 0 30-13.458 30-30 0-9.499-4.443-17.974-11.354-23.475 3.885-9.156 7.468-19.225 10.716-30.019 7.132 1.439 14.134 2.617 20.967 3.502 10.28 1.332 19.981 1.99 29.061 1.99 37.7-.001 64.621-11.354 77.116-32.997 15.505-26.855 6.188-65.017-26.235-107.456-4.474-5.856-9.331-11.712-14.523-17.545zm4.252-150c5.514 0 10 4.486 10 10s-4.486 10-10 10-10-4.486-10-10 4.486-10 10-10zm-29.899 12.356c1.207 15.444 14.15 27.644 29.899 27.644 6.922 0 13.299-2.363 18.381-6.316.279.433.548.871.805 1.316 11.043 19.128 2.001 50.224-24.807 85.313-3.841 5.028-7.987 10.059-12.401 15.078-16.077-16.153-34.667-31.976-55.172-46.968-2.658-25.208-6.94-49.323-12.724-71.59 20.541-4.101 39.512-5.685 56.019-4.477zm-105.101 215.586c-14.945 8.629-30.016 16.442-45 23.372-14.984-6.93-30.055-14.743-45-23.372-14.934-8.622-29.225-17.76-42.709-27.263-1.506-16.624-2.291-33.623-2.291-50.679s.785-34.055 2.291-50.679c13.484-9.503 27.776-18.641 42.709-27.263 14.976-8.646 30.053-16.447 45-23.364 14.947 6.917 30.024 14.717 45 23.364 14.934 8.622 29.225 17.76 42.709 27.263 1.506 16.624 2.291 33.623 2.291 50.679 0 16.986-.765 33.992-2.213 50.625-13.507 9.523-27.825 18.679-42.787 27.317zm39.908-1.155c-2.445 18.256-5.725 35.754-9.729 51.929-16.453-4.276-33.529-9.959-50.885-16.915 10.261-5.139 20.517-10.656 30.706-16.538 10.271-5.93 20.255-12.105 29.908-18.476zm-109.202 35.014c-17.134 6.867-33.994 12.491-50.252 16.748-4.201-16.213-7.604-33.568-10.138-51.615 9.584 6.318 19.492 12.444 29.684 18.329 10.189 5.882 20.445 11.399 30.706 16.538zm-84.691-76.952c-14.393-11.31-27.59-22.999-39.331-34.849 11.741-11.85 24.938-23.539 39.331-34.849-.669 11.476-1.015 23.112-1.015 34.849s.346 23.373 1.015 34.849zm24.301-111.783c2.538-18.074 5.948-35.455 10.158-51.69 16.144 4.254 33.023 9.899 50.262 16.824-10.263 5.131-20.531 10.645-30.735 16.537-10.193 5.884-20.101 12.01-29.685 18.329zm108.948-34.866c17.239-6.925 34.118-12.57 50.262-16.824 4.209 16.235 7.62 33.615 10.158 51.69-9.584-6.318-19.492-12.444-29.684-18.329-10.204-5.891-20.472-11.405-30.736-16.537zm84.721 76.951c14.393 11.311 27.591 22.999 39.332 34.849-11.745 11.854-24.948 23.547-39.347 34.861.676-11.564 1.03-23.223 1.03-34.861 0-11.737-.346-23.373-1.015-34.849zm-170.42-134.121c17.157-42.598 39.549-67.03 61.435-67.03s44.278 24.432 61.435 67.03c2.711 6.731 5.245 13.837 7.602 21.252-22.129 5.845-45.424 14.1-69.036 24.513-23.613-10.413-46.907-18.668-69.036-24.513 2.355-7.415 4.89-14.521 7.6-21.252zm-118.565 18.97c5.514 0 10 4.486 10 10s-4.486 10-10 10-10-4.486-10-10 4.486-10 10-10zm5.621 120.313c-26.809-35.089-35.851-66.185-24.807-85.313.257-.445.526-.883.805-1.316 5.082 3.953 11.459 6.316 18.381 6.316 15.748 0 28.692-12.2 29.899-27.644 16.507-1.208 35.478.376 56.019 4.479-5.784 22.267-10.066 46.381-12.724 71.59-20.505 14.992-39.095 30.814-55.172 46.967-4.414-5.02-8.559-10.051-12.401-15.079zm61.48 165.86c-43.795 5.672-75.244-2.045-86.288-21.173s-2.001-50.224 24.808-85.313c3.841-5.028 7.987-10.059 12.401-15.078 16.077 16.153 34.666 31.975 55.172 46.967 2.654 25.171 6.927 49.253 12.698 71.493-6.392 1.27-12.665 2.31-18.791 3.104zm172.899 79.827c-5.514 0-10-4.486-10-10s4.486-10 10-10 10 4.486 10 10-4.486 10-10 10zm-.327-39.992c-16.391.177-29.673 13.56-29.673 29.992 0 4.633 1.057 9.024 2.94 12.945-10.695 11.319-21.752 17.055-32.94 17.055-21.886 0-44.278-24.432-61.435-67.03-2.706-6.717-5.235-13.809-7.588-21.208 22.259-5.864 45.519-14.126 69.022-24.511 23.799 10.516 47.35 18.857 69.864 24.733-3.095 10.116-6.502 19.514-10.19 28.024zm139.513-61.008c-11.043 19.128-42.497 26.845-86.287 21.173-5.961-.772-12.06-1.775-18.274-2.999 5.437-22.065 9.582-46.363 12.188-71.603 20.503-14.99 39.09-30.811 55.165-46.962 4.414 5.019 8.56 10.051 12.401 15.078 26.808 35.089 35.85 66.185 24.807 85.313z"/><circle cx="256" cy="256" r="50"/></g></svg>