<svg id="Icons" height="512" viewBox="0 0 74 74" width="512" xmlns="http://www.w3.org/2000/svg"><path d="m53.488 37.025h-.021l-7.814-.164a3.089 3.089 0 0 1 -2.129-.908l-5.306-5.307a3.084 3.084 0 0 1 -.909-2.129l-.164-7.817a1 1 0 0 1 .293-.728l9.173-9.172a1 1 0 0 1 .823-.286l7.194.836a3.113 3.113 0 0 1 1.836.888l5.467 5.467a3.113 3.113 0 0 1 .888 1.836l.836 7.195a1 1 0 0 1 -.286.822l-9.169 9.174a1 1 0 0 1 -.712.293zm-14.334-15.938.155 7.388a1.1 1.1 0 0 0 .323.757l5.306 5.307a1.1 1.1 0 0 0 .757.322l7.388.156 8.53-8.53-.78-6.714a1.11 1.11 0 0 0 -.315-.652l-5.468-5.468a1.108 1.108 0 0 0 -.653-.316l-6.713-.779z"/><path d="m38.151 21.682a1 1 0 0 1 -.707-.293l-2.724-2.724a1 1 0 0 1 0-1.414l9.167-9.167a1 1 0 0 1 1.414 0l2.724 2.724a1 1 0 0 1 0 1.414l-9.167 9.167a1 1 0 0 1 -.707.293zm-1.31-3.724 1.31 1.31 7.749-7.753-1.31-1.31z"/><path d="m33.761 20.211a1.992 1.992 0 0 1 -1.412-.584l-2.957-2.958a2 2 0 0 1 0-2.823l11.09-11.091a2.047 2.047 0 0 1 2.824 0l2.957 2.957a2 2 0 0 1 0 2.824l-11.091 11.091a1.99 1.99 0 0 1 -1.411.584zm-2.953-4.953 2.955 2.955 11.086-11.091-2.957-2.953zm-.709-.7.706.708z"/><path d="m56.215 39.746a1 1 0 0 1 -.707-.293l-2.724-2.724a1 1 0 0 1 0-1.414l9.167-9.167a1 1 0 0 1 1.414 0l2.724 2.724a1 1 0 0 1 0 1.414l-9.167 9.167a1 1 0 0 1 -.707.293zm-1.31-3.724 1.31 1.31 7.753-7.753-1.31-1.31z"/><path d="m58.913 45.363a1.99 1.99 0 0 1 -1.412-.584l-2.958-2.958a2 2 0 0 1 0-2.823l11.091-11.091a2 2 0 0 1 2.824 0l2.957 2.957a2 2 0 0 1 0 2.824l-11.091 11.091a1.99 1.99 0 0 1 -1.411.584zm-2.954-4.953 2.956 2.955 11.085-11.091-2.957-2.953zm-.709-.7.707.708z"/><path d="m12.528 71.83a3.442 3.442 0 0 1 -2.424-1l-7.104-7.104a3.426 3.426 0 0 1 .155-4.993l34.298-30.288a1 1 0 0 1 1.369.042l6.52 6.521a1 1 0 0 1 .043 1.369l-30.285 34.294-.75-.662.75.662a3.443 3.443 0 0 1 -2.464 1.157zm25.544-41.264-33.589 29.666a1.429 1.429 0 0 0 -.065 2.08l7.1 7.1a1.4 1.4 0 0 0 1.053.417 1.416 1.416 0 0 0 1.027-.482l29.666-33.589z"/></svg>