<?xml version="1.0" encoding="iso-8859-1"?><svg version="1.1" id="Capa_1" xmlns="http://www.w3.org/2000/svg" xmlns:xlink="http://www.w3.org/1999/xlink" x="0px" y="0px"	 viewBox="0 0 512 512" style="enable-background:new 0 0 512 512;" xml:space="preserve"><g>	<g>		<path d="M437.019,74.981C388.667,26.628,324.38,0,256,0S123.333,26.628,74.981,74.981C26.628,123.333,0,187.62,0,256			s26.628,132.667,74.981,181.019C123.333,485.372,187.62,512,256,512s132.667-26.628,181.019-74.981			C485.372,388.667,512,324.38,512,256S485.371,123.333,437.019,74.981z M96.195,415.805C53.51,373.119,30.001,316.367,30.001,256			S53.51,138.88,96.195,96.195C138.88,53.51,195.633,30.001,256,30.001c58.173,0,105.499,47.326,105.499,105.499			S314.173,240.999,256,240.999c-74.716,0-135.5,60.785-135.5,135.5c0,28.017,8.547,54.077,23.172,75.706			C126.521,442.35,110.558,430.168,96.195,415.805z M415.805,415.805C373.119,458.49,316.366,481.998,256,481.998			c-58.173,0-105.499-47.326-105.499-105.499S197.827,271,256,271c74.716,0,135.5-60.785,135.5-135.5			c0-28.017-8.547-54.077-23.172-75.706c17.151,9.855,33.114,22.037,47.476,36.401c42.686,42.685,66.193,99.439,66.193,159.804			C481.998,316.365,458.49,373.119,415.805,415.805z"/>	</g></g><g>	<g>		<path d="M256,81.098c-30.341,0-55.027,24.685-55.027,55.027s24.684,55.027,55.027,55.027c30.341,0,55.027-24.685,55.027-55.027			S286.341,81.098,256,81.098z M256,161.15c-13.799,0-25.025-11.227-25.025-25.025S242.2,111.099,256,111.099			c13.799,0,25.025,11.227,25.025,25.025S269.799,161.15,256,161.15z"/>	</g></g><g>	<g>		<path d="M256,321.473c-30.341,0-55.027,24.685-55.027,55.027s24.685,55.027,55.027,55.027s55.027-24.685,55.027-55.027			S286.341,321.473,256,321.473z M256,401.525c-13.799,0-25.025-11.227-25.025-25.025c0-13.799,11.227-25.025,25.025-25.025			s25.025,11.227,25.025,25.025C281.025,390.298,269.799,401.525,256,401.525z"/>	</g></g><g></g><g></g><g></g><g></g><g></g><g></g><g></g><g></g><g></g><g></g><g></g><g></g><g></g><g></g><g></g></svg>