<?xml version="1.0" encoding="iso-8859-1"?><svg version="1.1" id="Capa_1" xmlns="http://www.w3.org/2000/svg" xmlns:xlink="http://www.w3.org/1999/xlink" x="0px" y="0px"	 viewBox="0 0 512 512" style="enable-background:new 0 0 512 512;" xml:space="preserve"><g>	<g>		<path d="M426.667,341.333H384V170.667h42.667c47.131,0,85.333-38.202,85.333-85.333S473.798,0,426.667,0			s-85.333,38.202-85.333,85.333V128H170.667V85.333C170.667,38.202,132.465,0,85.333,0S0,38.202,0,85.333			s38.202,85.333,85.333,85.333H128v170.667H85.333C38.202,341.333,0,379.535,0,426.667S38.202,512,85.333,512			s85.333-38.202,85.333-85.333V384h170.667v42.667c0,47.131,38.202,85.333,85.333,85.333S512,473.798,512,426.667			S473.798,341.333,426.667,341.333z M384,85.333c0-23.567,19.099-42.667,42.667-42.667s42.667,19.099,42.667,42.667			S450.234,128,426.667,128H384V85.333z M85.333,128c-23.567,0-42.667-19.099-42.667-42.667s19.099-42.667,42.667-42.667			S128,61.766,128,85.333V128H85.333z M128,426.667c0,23.567-19.099,42.667-42.667,42.667s-42.667-19.099-42.667-42.667			S61.766,384,85.333,384H128V426.667z M170.667,341.333V170.667h170.667v170.667H170.667z M426.667,469.333			c-23.567,0-42.667-19.099-42.667-42.667V384h42.667c23.567,0,42.667,19.099,42.667,42.667S450.234,469.333,426.667,469.333z"/>	</g></g><g></g><g></g><g></g><g></g><g></g><g></g><g></g><g></g><g></g><g></g><g></g><g></g><g></g><g></g><g></g></svg>