<?xml version="1.0" encoding="iso-8859-1"?><svg version="1.1" id="Capa_1" xmlns="http://www.w3.org/2000/svg" xmlns:xlink="http://www.w3.org/1999/xlink" x="0px" y="0px"	 viewBox="0 0 512 512" style="enable-background:new 0 0 512 512;" xml:space="preserve"><g>	<g><g><path d="M511.957,256.139c0,0.013,0.001,0.026,0.001,0.038C512.009,256.925,512.019,255.492,511.957,256.139z"/><path d="M255.984,0.011c-32.046,0-62.994,5.777-92.318,17.16v-2.158c0-13.695-16.981-20.248-26.162-10.024L81.833,66.983				L26.162,4.989C17.012-5.2,0,1.271,0,15.013v240.993C0,397.495,114.49,512,255.984,512c141.075,0,255.242-112.271,255.968-255.823 c0.002-0.019,0.003-0.022,0.004-0.038C511.396,112.477,397.188,0.011,255.984,0.011z M163.666,49.688				c43.024-19.327,89.22-23.761,132.054-16.204c85.422,69.659,157.323,216.141,91.144,324.942 c-62.894,30.416-139.673,20.536-191.144-21.862c17.949-2.265,30.936-8.315,42.183-13.576				c17.389-8.133,31.123-14.558,61.099-6.314c27.538,7.571,48.297-25.307,29.631-46.918c-43.079-49.877-83.38-43.405-115.762-38.205 c-20.922,3.36-38.473,6.162-57.025-3.477l69.736-39.588c4.695-2.665,7.596-7.648,7.596-13.047v-22.357				c0-5.828-3.375-11.129-8.656-13.594l-60.856-28.408V49.688z M168.087,306.739c-10.514-15.115-17.788-31.885-21.624-49.806				c25.492,11.574,49.392,7.737,71.164,4.241c30.655-4.923,55.017-8.837,86.118,25.72c-38.585-9.78-59.788,0.137-78.554,8.915 C209.806,303.006,195.21,309.826,168.087,306.739z M133.663,54.17v42.904l-27.148-12.673L133.663,54.17z M30.002,54.171	L61.639,89.4c-12.306,14.33-22.886,29.828-31.637,46.22V54.171z M255.984,481.996c-124.901,0-225.982-101.075-225.982-225.991				c0-54.913,19.623-107.169,55.472-148.315l117.701,54.943v4.07l-82.226,46.678c-4.658,2.612-7.667,7.609-7.667,13.087 c0,44.377,15.943,84.864,46.105,117.083c74.701,79.797,222.071,91.159,309.776-12.234				C438.789,417.504,356.081,481.996,255.984,481.996z M434.118,324.973c27.1-92.721-12.925-196.584-74.16-269.724 C430.7,91.993,480.867,165.792,481.932,253.18C469.9,281.535,453.728,305.735,434.118,324.973z"/></g>	</g></g><g></g><g></g><g></g><g></g><g></g><g></g><g></g><g></g><g></g><g></g><g></g><g></g><g></g><g></g><g></g></svg>