<?xml version="1.0" encoding="iso-8859-1"?><svg version="1.1" id="Capa_1" xmlns="http://www.w3.org/2000/svg" xmlns:xlink="http://www.w3.org/1999/xlink" x="0px" y="0px"	 viewBox="0 0 512 512" style="enable-background:new 0 0 512 512;" xml:space="preserve"><g>	<g>		<path d="M256,0C114.507,0,0,114.497,0,256c0,141.493,114.497,256,256,256c141.493,0,256-114.497,256-256			C512,114.507,397.503,0,256,0z M30,256c0-98.24,62.18-179.909,146.206-211.559C132.281,99.623,116,185.515,116,256			c0,70.865,16.426,156.559,60.206,211.559C92.46,436.015,30,354.552,30,256z M256,482c-45.464,0-76.627-57.567-91.007-100.535			C190.3,407.051,222.178,421,256,421c78.875,0,140-75.484,140-165c0-89.555-61.152-165-140-165			c-33.822,0-65.7,13.949-91.007,39.535C179.37,87.576,210.538,30,256,30c124.911,0,226,101.079,226,226			C482,380.911,380.921,482,256,482z M146,256c0-74.439,49.346-135,110-135s110,60.561,110,135s-49.346,135-110,135			S146,330.439,146,256z"/>	</g></g><g></g><g></g><g></g><g></g><g></g><g></g><g></g><g></g><g></g><g></g><g></g><g></g><g></g><g></g><g></g></svg>