<?xml version="1.0" encoding="iso-8859-1"?><svg version="1.1" id="Capa_1" xmlns="http://www.w3.org/2000/svg" xmlns:xlink="http://www.w3.org/1999/xlink" x="0px" y="0px"	 viewBox="0 0 512 512" style="enable-background:new 0 0 512 512;" xml:space="preserve"><g>	<g>		<path d="M413.459,242.398c-14.349-64.39-71.956-112.097-139.837-112.097c-67.931,0-125.5,47.761-139.837,112.097			c-2.085,9.357,5.041,18.263,14.638,18.263h250.398C408.407,260.661,415.547,251.767,413.459,242.398z M168.821,230.662			c17.631-42.774,59.206-70.362,104.801-70.362c45.658,0,87.193,27.643,104.801,70.362H168.821z"/>	</g></g><g>	<g>		<path d="M471.664,140.777c13.801-50.362,7.856-91.509-17.013-116.38c-29.107-29.113-79.241-32.28-141.168-8.913			c-14.191,5.355-28.671,11.977-43.269,19.734c-62.397,0.869-120.931,25.563-165.149,69.788			c-44.22,44.226-68.91,102.769-69.778,165.175C5.149,326.91-20.856,409.313,24.468,454.643			c29.445,29.451,76.19,28.04,116.373,17.022C179.786,497.898,225.619,512,273.622,512c100.49,0,185.929-61.977,221.098-149.012			c3.977-9.843-3.277-20.62-13.905-20.62H370.684c-4.357,0-8.499,1.895-11.348,5.192c-21.589,24.986-52.831,39.316-85.714,39.316			c-45.658,0-87.193-27.643-104.801-70.362h326.461c7.569,0,13.953-5.641,14.883-13.154c1.218-9.821,1.835-19.837,1.835-29.772			C512,225.574,497.897,179.731,471.664,140.777z M433.442,45.609c13.587,13.589,18.346,36.144,14.082,64.933			c-32.439-34.555-73.317-58.168-118.312-68.868C376.344,24.949,414.152,26.315,433.442,45.609z M205.564,76.506			c-47.657,35.53-93.137,80.902-128.995,129.014C96.965,146.299,144.354,97.593,205.564,76.506z M45.677,433.431			c-19.292-19.295-20.657-57.108-3.934-104.243c10.686,44.949,34.27,85.85,68.858,118.327			C81.817,451.78,59.264,447.02,45.677,433.431z M481.611,286.515H148.424c-9.586,0-16.726,8.894-14.638,18.263			c14.35,64.39,71.957,112.097,139.837,112.097c39.267,0,76.673-16.138,103.698-44.508h79.91			c-34.356,63.77-102.513,109.634-183.608,109.634c-114.072,0-206.143-91.243-208.332-204.27			c45.844-82.712,129.61-166.563,212.473-212.505c54.11,1.048,104.827,22.606,143.209,60.992			c39.357,39.365,61.033,91.702,61.033,147.37C482.005,277.889,481.873,282.209,481.611,286.515z"/>	</g></g><g></g><g></g><g></g><g></g><g></g><g></g><g></g><g></g><g></g><g></g><g></g><g></g><g></g><g></g><g></g></svg>