<?xml version="1.0" encoding="UTF-8" standalone="no"?>
<!DOCTYPE svg PUBLIC "-//W3C//DTD SVG 1.1//EN" "http://www.w3.org/Graphics/SVG/1.1/DTD/svg11.dtd">
<svg width="100%" height="100%" viewBox="0 0 512 512" version="1.1" xmlns="http://www.w3.org/2000/svg" xmlns:xlink="http://www.w3.org/1999/xlink" xml:space="preserve" xmlns:serif="http://www.serif.com/" style="fill-rule:evenodd;clip-rule:evenodd;stroke-linejoin:round;stroke-miterlimit:1.41421;"><g transform="matrix(0.464208,0,0,0.464208,23.8971,23.8943)"><path d="M946.586,599.455C932.873,669.996 823.77,747.197 698.465,762.158C633.124,769.954 568.791,777.12 500.19,773.973C387.999,768.834 299.474,747.197 299.474,747.197C299.474,758.117 300.147,768.516 301.494,778.241C316.08,888.952 411.281,895.585 501.461,898.677C592.482,901.791 673.529,876.237 673.529,876.237L677.269,958.518C677.269,958.518 613.603,992.703 500.19,998.991C437.651,1002.43 359.998,997.418 269.554,973.48C73.396,921.564 39.661,712.484 34.499,500.337C32.926,437.35 33.896,377.956 33.896,328.281C33.896,111.35 176.038,47.765 176.038,47.765C247.71,14.851 370.693,1.01 498.546,-0.035L501.688,-0.035C629.541,1.01 752.605,14.851 824.271,47.765C824.271,47.765 966.409,111.35 966.409,328.281C966.409,328.281 968.192,488.334 946.586,599.455" style="fill:none;fill-rule:nonzero;stroke:black;stroke-width:21.54px;"/><path d="M798.748,345.11L798.748,607.777L694.678,607.777L694.678,352.831C694.678,299.088 672.064,271.81 626.831,271.81C576.819,271.81 551.754,304.169 551.754,368.153L551.754,507.7L448.297,507.7L448.297,368.153C448.297,304.169 423.227,271.81 373.215,271.81C327.982,271.81 305.368,299.088 305.368,352.831L305.368,607.777L201.298,607.777L201.298,345.11C201.298,291.427 214.967,248.767 242.425,217.206C270.739,185.645 307.82,169.465 353.85,169.465C407.106,169.465 447.435,189.933 474.101,230.875L500.023,274.326L525.95,230.875C552.61,189.933 592.94,169.465 646.201,169.465C692.226,169.465 729.307,185.645 757.626,217.206C785.079,248.767 798.748,291.427 798.748,345.11" style="fill:none;stroke:currentColor;stroke-width:21.54px;"/></g></svg>
