<svg id="democracy-icon" enable-background="new 0 0 512 512" height="512" viewBox="0 0 512 512" width="512" xmlns="http://www.w3.org/2000/svg"><g><path d="m500.243 290.885c-5.173-2.565-14.969-7.145-25.216-11.879v-23.685c.059-26.334-32.299-39.727-50.822-21.054-.425.425-.835.86-1.231 1.306-13.274-15.292-38.456-12.495-48.17 5.102-11.947-9.973-30.976-8.216-40.937 3.542v-24.107c9.937-4.556 19.87-12.486 29.921-25.753l20.11-26.564c9.655-12.754 14.884-27.954 15.12-43.956l.579-39.225c.12-8.113-4.493-15.683-11.755-19.285-5.173-2.565-14.969-7.145-25.216-11.878v-23.686c.059-26.334-32.298-39.727-50.822-21.054-.425.425-.835.86-1.231 1.306-13.273-15.292-38.455-12.495-48.17 5.103-14.828-12.251-38.093-6.448-45.704 10.878-19.29-14.229-47.353-.047-47.22 24.107v8.341c.344 9.931 14.66 9.923 15 0v-8.341c.814-19.6 28.735-19.585 29.541 0v54.482c-.814 19.6-28.735 19.585-29.541 0v-10.839c-.344-9.931-14.66-9.923-15 0l-.001 67.687c0 21.908 11.571 41.163 28.92 51.972v36.742c-1.722-.799-3.478-1.612-5.248-2.429v-23.685c.059-26.334-32.299-39.727-50.822-21.054-.425.425-.835.86-1.23 1.305-13.274-15.292-38.456-12.494-48.171 5.103-14.829-12.251-38.094-6.447-45.705 10.879-19.29-14.229-47.353-.047-47.22 24.106l-.002 111.33c0 21.907 11.571 41.163 28.92 51.971v40.909c.344 9.931 14.66 9.923 15 0v-34.175c5.47 1.61 11.255 2.474 17.239 2.474h42.063c3.302.344 6.56.736 9.714 1.115 8.052.969 15.971 1.921 23.822 1.921 4.227 0 8.433-.277 12.629-.976v78.051h-105.47v-12.969c-.344-9.931-14.66-9.923-15 0v20.469c0 4.142 3.357 7.5 7.5 7.5h120.47c4.143 0 7.5-3.358 7.5-7.5v-90.112c9.938-4.556 19.872-12.486 29.924-25.755l4.087-5.398v121.267c0 4.142 3.357 7.5 7.5 7.5h232.869c4.143 0 7.5-3.358 7.5-7.5v-58.797c8.381-3.838 16.752-10.079 25.189-19.904 2.698-3.143 2.338-7.878-.805-10.576-3.143-2.699-7.878-2.338-10.576.804-20.24 23.573-37.436 21.505-63.472 18.373-3.338-.401-10.861-1.222-11.117-1.222h-42.449c-25.453 0-46.16-20.716-46.16-46.18v-31.008c14.824 8.88 35.185 1.968 41.863-13.5 11.426 8.672 29.02 7.074 38.714-3.292 5.73 7.243 15.074 11.756 24.921 11.165-5.03 4.394-9.088 9.249-12.381 13.6-2.5 3.303-1.85 8.006 1.453 10.507 3.3 2.499 8.006 1.85 10.506-1.453 11.676-15.422 22.809-21.784 37.285-21.301 7.508.262 23.353-4.402 26.038-16.324 1.087-4.831-1.377-9.857-5.859-11.951l-10.625-4.963c-15.919-7.436-19.114-27.116-17.643-33.341 1.073-4.539 2.62-7.004 3.553-8.083 8.321 3.781 46.933 21.355 58.877 27.278 2.113 1.048 3.456 3.255 3.421 5.624l-.579 39.225c-.188 12.788-4.366 24.933-12.081 35.124l-3.263 4.31c-2.5 3.303-1.85 8.007 1.453 10.507 3.273 2.485 7.992 1.868 10.506-1.453l3.263-4.31c9.655-12.754 14.884-27.954 15.12-43.956l.579-39.225c.12-8.116-4.493-15.686-11.755-19.287zm-182.156-261.122c0-3.949 1.535-7.659 4.324-10.447 9.124-9.275 25.302-2.572 25.216 10.447v16.789c-10.949-5.014-19.842-9.049-20.64-9.411-2.799-1.308-5.904-1.459-8.9-.461zm2.686 21.03c-.02-.008-.039-.017-.059-.026.009.003.028.012.059.026zm-47.228 42.978c.01-.316.016-.634.016-.952v-54.484c0-.319-.006-.636-.016-.952v-7.619c.814-19.599 28.733-19.585 29.54 0v65.31c-.814 19.599-28.734 19.585-29.54 0zm-44.526-55.436c.741-19.195 27.937-19.756 29.525-.678v55.838c-1.596 19.093-28.791 18.503-29.525-.678zm-80.41 185.697c0-3.949 1.535-7.659 4.324-10.447 9.124-9.274 25.302-2.572 25.216 10.447v16.789c-10.948-5.014-19.841-9.049-20.639-9.41-2.801-1.309-5.906-1.459-8.901-.462zm-44.542 64.008c.01-.316.016-.634.016-.952v-54.483c0-.319-.006-.636-.016-.952v-7.619c.814-19.6 28.735-19.585 29.541 0v65.31c-.814 19.6-28.735 19.585-29.541 0zm-44.525-55.436c.741-19.195 27.937-19.756 29.525-.678v55.838c-1.596 19.092-28.791 18.502-29.525-.678zm-44.541 11.768c.814-19.599 28.735-19.584 29.541 0v54.483c-.814 19.6-28.735 19.585-29.541 0zm187.461 108.636-20.109 26.562c-21.987 29.024-40.143 26.84-67.626 23.535-3.338-.401-6.79-.816-10.351-1.183-.255-.026-.512-.04-.768-.04h-42.449c-25.452 0-46.159-20.716-46.159-46.18v-31.007c14.824 8.879 35.184 1.967 41.863-13.501 11.426 8.672 29.02 7.074 38.714-3.292 5.733 7.246 15.082 11.759 24.933 11.165-5.036 4.394-9.1 9.249-12.393 13.6-5.719 8.125 5.698 16.76 11.959 9.054 11.676-15.423 22.814-21.786 37.284-21.302 7.505.255 23.354-4.4 26.039-16.324 1.087-4.831-1.377-9.856-5.859-11.951l-10.625-4.963c-15.919-7.436-19.114-27.116-17.643-33.34 1.073-4.538 2.62-7.004 3.554-8.084 8.324 3.783 46.933 21.355 58.876 27.278 2.113 1.048 3.456 3.255 3.421 5.625l-.578 39.224c-.191 12.787-4.368 24.933-12.083 35.124zm-53.431-60.156c3.27 3.133 7.104 5.85 11.536 7.92l5.234 2.445c-.593.312-1.239.613-1.913.887-7.09.261-13.257-4.633-14.857-11.252zm176.766 152.844c5.47 1.61 11.256 2.475 17.24 2.475h42.063c3.302.344 6.56.736 9.713 1.115 12.334 1.471 24.273 2.961 36.454.961v46.747h-105.47zm-43.918-170.035-.002 111.33c0 21.907 11.571 41.162 28.92 51.971v58.031h-97.399v-132.968c0-.196-.008-.39-.022-.582l1.046-1.381c9.655-12.753 14.884-27.953 15.121-43.957l.578-39.224c.12-8.114-4.494-15.684-11.755-19.285-1.361-.675-3.042-1.49-4.968-2.41v-37.048c5.47 1.61 11.255 2.474 17.239 2.474h42.067c3.3.344 6.556.735 9.708 1.114 8.051.969 15.972 1.922 23.823 1.921 4.228 0 8.436-.277 12.632-.976v22.102c-18.383-4.838-37.254 9.827-36.988 28.888zm44.541 54.482c-.814 19.6-28.735 19.585-29.541 0v-54.482c.814-19.6 28.735-19.585 29.541 0zm-42.217-121.308c-3.326-.4-11.004-1.225-11.233-1.222h-42.334c-25.452 0-46.159-20.716-46.159-46.18v-31.007c14.824 8.879 35.184 1.967 41.862-13.501 11.426 8.672 29.02 7.074 38.714-3.292 5.459 6.829 13.857 11.211 23.26 11.211h.001c.558 0 1.112-.016 1.663-.046-5.032 4.394-9.091 9.248-12.385 13.6-2.5 3.303-1.85 8.006 1.453 10.507 3.3 2.499 8.007 1.85 10.506-1.453 11.677-15.423 22.822-21.795 37.285-21.301 7.491.275 23.354-4.402 26.038-16.324 1.087-4.831-1.377-9.857-5.859-11.951l-10.625-4.962c-15.919-7.436-19.114-27.116-17.643-33.341 1.073-4.538 2.62-7.004 3.553-8.083 8.32 3.781 46.932 21.354 58.876 27.277 2.113 1.048 3.457 3.256 3.422 5.625l-.579 39.226c-.188 12.787-4.366 24.933-12.081 35.124l-20.109 26.562c-21.986 29.021-40.144 26.837-67.626 23.531zm34.305-110.252c3.27 3.133 7.104 5.849 11.536 7.92l5.234 2.444c-.593.312-1.243.613-1.921.887-7.087.257-13.249-4.634-14.849-11.251zm52.437 220.448c-1.571 19.11-28.789 18.537-29.525-.656v-54.483c.743-19.208 27.962-19.751 29.525-.656zm44.54 1.6c-.814 19.599-28.734 19.585-29.54 0v-1.334c.009-.306.015-.613.015-.921v-54.483c0-.308-.005-.615-.015-.922v-7.65c.814-19.6 28.734-19.584 29.54 0zm26.959 11.429 5.234 2.445c-.594.313-1.244.614-1.922.887-7.087.257-13.248-4.636-14.848-11.252 3.27 3.133 7.104 5.85 11.536 7.92zm-9.329-55.736c.008.003.027.012.059.026-.02-.008-.039-.017-.059-.026zm26.912-4.214c-10.949-5.014-19.842-9.049-20.641-9.411-2.798-1.307-5.904-1.458-8.899-.461v-6.917c0-3.949 1.535-7.659 4.324-10.447 9.124-9.274 25.302-2.572 25.216 10.447z"/></g></svg>